<svg xmlns="http://www.w3.org/2000/svg" viewBox="0 0 390 760">
<rect width="390" height="760" rx="42" fill="#fff"/><rect x="1" y="1" width="388" height="758" rx="41" fill="none" stroke="#dce8de" stroke-width="2"/>
<text x="28" y="58" font-family="Arial" font-size="15" fill="#69766e">9:41</text><text x="28" y="116" font-family="Arial" font-size="28" font-weight="700" fill="#0e2617">Статистика</text><text x="28" y="146" font-family="Arial" font-size="15" fill="#69766e">Последните 7 дни · Георги</text>
<rect x="24" y="180" width="342" height="210" rx="24" fill="#f4fbf5"/><text x="46" y="218" font-family="Arial" font-size="17" font-weight="700" fill="#0e2617">Хранене</text><text x="46" y="250" font-family="Arial" font-size="30" font-weight="700" fill="#169447">42</text><text x="90" y="250" font-family="Arial" font-size="14" fill="#69766e">записа</text>
<g fill="#49b764"><rect x="48" y="320" width="24" height="42" rx="6"/><rect x="88" y="290" width="24" height="72" rx="6"/><rect x="128" y="305" width="24" height="57" rx="6"/><rect x="168" y="270" width="24" height="92" rx="6"/><rect x="208" y="300" width="24" height="62" rx="6"/><rect x="248" y="282" width="24" height="80" rx="6"/><rect x="288" y="258" width="24" height="104" rx="6"/></g>
<rect x="24" y="414" width="342" height="120" rx="24" fill="#fff" stroke="#dce8de"/><text x="46" y="450" font-family="Arial" font-size="17" font-weight="700" fill="#0e2617">Сън</text><text x="46" y="485" font-family="Arial" font-size="27" font-weight="700" fill="#0e2617">25 ч. 10 мин.</text><text x="46" y="512" font-family="Arial" font-size="13" fill="#69766e">общо за периода</text>
<rect x="24" y="558" width="342" height="88" rx="22" fill="#eaf8ed"/><text x="46" y="590" font-family="Arial" font-size="15" font-weight="700" fill="#169447">Nesti insight</text><text x="46" y="618" font-family="Arial" font-size="14" fill="#405047">Средните дрямки тази седмица са по-дълги.</text>
<circle cx="195" cy="690" r="28" fill="#169447"/><text x="195" y="700" text-anchor="middle" font-family="Arial" font-size="31" fill="white">+</text>
</svg>