<svg xmlns="http://www.w3.org/2000/svg" viewBox="0 0 900 620">
<defs><linearGradient id="bg" x1="0" y1="0" x2="1" y2="1"><stop stop-color="#f8efe4"/><stop offset="1" stop-color="#e7f6e9"/></linearGradient><filter id="blur"><feGaussianBlur stdDeviation="18"/></filter></defs>
<rect width="900" height="620" rx="42" fill="url(#bg)"/><circle cx="730" cy="110" r="100" fill="#fff" opacity=".55" filter="url(#blur)"/>
<ellipse cx="450" cy="565" rx="330" ry="42" fill="#183b25" opacity=".10"/>
<circle cx="325" cy="235" r="105" fill="#d8ad8e"/><path d="M220 224c8-112 196-150 218-15-70-42-144-38-218 15z" fill="#493327"/>
<circle cx="575" cy="235" r="105" fill="#e2b99a"/><path d="M476 224c10-123 190-146 207-10-67-50-140-45-207 10z" fill="#4d352b"/>
<circle cx="450" cy="355" r="86" fill="#efc7aa"/><path d="M371 345c8-92 151-105 160-8-51-33-106-31-160 8z" fill="#7b5948"/>
<path d="M178 590c25-186 108-265 219-247 17 116 89 155 53 247z" fill="#d8d1c7"/><path d="M722 590c-25-186-108-265-219-247-17 116-89 155-53 247z" fill="#e8d8ca"/>
<path d="M335 590c8-115 43-177 115-177s107 62 115 177z" fill="#f4efe8"/>
<path d="M285 360c58 34 99 67 165 101M615 360c-58 34-99 67-165 101" fill="none" stroke="#d6a987" stroke-width="38" stroke-linecap="round"/>
<circle cx="730" cy="150" r="22" fill="#49b764" opacity=".85"/><path d="M730 178c-55-35-55-82 0-58 55-24 55 23 0 58z" fill="#49b764"/>
</svg>