<svg xmlns="http://www.w3.org/2000/svg" viewBox="0 0 64 64" fill="none">

<rect x="43" y="32" width="16" height="22" rx="4" fill="#5E8B5F"/>
<path d="M47 32v-5h8v5" stroke="#0E2617" stroke-width="2"/>
<circle cx="47" cy="56" r="2" fill="#0E2617"/><circle cx="55" cy="56" r="2" fill="#0E2617"/>
<ellipse cx="26" cy="34" rx="17" ry="21" fill="#169447"/>
<ellipse cx="26" cy="38" rx="11" ry="15" fill="white"/>
<ellipse cx="21" cy="28" rx="5" ry="7" fill="white"/><ellipse cx="31" cy="28" rx="5" ry="7" fill="white"/>
<circle cx="22" cy="29" r="2" fill="#0E2617"/><circle cx="30" cy="29" r="2" fill="#0E2617"/>
<path d="M23 34l3-2 3 2-3 3-3-3z" fill="#F5A623"/>
<ellipse cx="17" cy="54" rx="6" ry="3" fill="#F5A623"/><ellipse cx="35" cy="54" rx="6" ry="3" fill="#F5A623"/>
<path d="M20 12c2-4 10-4 12 0" stroke="#169447" stroke-width="3" stroke-linecap="round"/>

</svg>